<svg width="227" height="144" viewBox="0 0 227 144" fill="none" xmlns="http://www.w3.org/2000/svg">
<path d="M104.672 131.209C103.487 131.209 102.372 130.982 101.325 130.528C100.279 130.074 99.3901 129.442 98.6596 128.633C97.9488 127.823 97.4848 126.905 97.2676 125.878L99.4592 124.96C99.7751 126.204 100.437 127.182 101.444 127.892C102.45 128.603 103.527 128.959 104.672 128.959C105.896 128.959 106.932 128.583 107.781 127.833C108.631 127.063 109.055 126.066 109.055 124.842C109.055 123.993 108.808 123.292 108.315 122.739C107.821 122.186 106.952 121.614 105.708 121.021C104.129 120.251 102.924 119.629 102.095 119.155C101.286 118.662 100.604 118.06 100.052 117.349C99.5184 116.618 99.2519 115.749 99.2519 114.743C99.2519 113.775 99.5086 112.916 100.022 112.166C100.555 111.396 101.256 110.804 102.125 110.389C103.013 109.954 103.961 109.737 104.968 109.737C105.817 109.737 106.607 109.915 107.337 110.27C108.088 110.606 108.68 111.06 109.114 111.633C109.568 112.205 109.795 112.817 109.795 113.469C109.795 113.568 109.776 113.736 109.736 113.972L107.426 113.824C107.505 113.508 107.416 113.212 107.16 112.936C106.923 112.64 106.587 112.413 106.153 112.255C105.718 112.077 105.304 111.988 104.909 111.988C104.04 111.988 103.28 112.255 102.628 112.788C101.996 113.301 101.68 113.923 101.68 114.654C101.68 115.246 101.888 115.779 102.302 116.253C102.737 116.727 103.24 117.141 103.813 117.497C104.385 117.833 105.126 118.227 106.034 118.682L107.1 119.215C108.66 120.064 109.776 120.913 110.447 121.762C111.138 122.611 111.484 123.647 111.484 124.871C111.484 126.096 111.168 127.191 110.536 128.159C109.924 129.126 109.095 129.877 108.048 130.41C107.002 130.943 105.876 131.209 104.672 131.209Z" fill="#8B1F31"/>
<path d="M124.318 112.521H117.595V110.27H133.47V112.521H126.747V130.617H124.318V112.521Z" fill="#8B1F31"/>
<path d="M149.569 130.884C147.969 130.884 146.567 130.528 145.363 129.817C144.159 129.087 143.231 128.09 142.579 126.826C141.927 125.562 141.602 124.151 141.602 122.591V110.27H144.03V122.591C144.03 123.815 144.267 124.891 144.741 125.819C145.215 126.747 145.866 127.468 146.696 127.981C147.545 128.475 148.522 128.722 149.628 128.722C151.326 128.722 152.678 128.159 153.685 127.033C154.712 125.908 155.225 124.427 155.225 122.591V110.27H157.654V122.591C157.654 124.23 157.308 125.681 156.617 126.945C155.926 128.188 154.969 129.156 153.744 129.847C152.52 130.538 151.128 130.884 149.569 130.884Z" fill="#8B1F31"/>
<path d="M175.603 110.122C177.439 110.241 179.068 110.754 180.49 111.662C181.931 112.571 183.047 113.795 183.837 115.335C184.626 116.855 185.021 118.563 185.021 120.459C185.021 122.472 184.577 124.269 183.689 125.849C182.82 127.428 181.606 128.662 180.046 129.551C178.486 130.439 176.709 130.884 174.715 130.884H173.234C173.076 130.884 172.73 130.884 172.197 130.884C171.664 130.884 170.716 130.824 169.354 130.706L167.696 130.558V110.093L175.603 110.122ZM173.767 128.662C176.61 128.662 178.792 127.961 180.312 126.56C181.833 125.158 182.593 123.154 182.593 120.547C182.593 118.099 181.941 116.154 180.638 114.713C179.355 113.272 177.568 112.492 175.277 112.373H170.124V128.514C171.467 128.613 172.681 128.662 173.767 128.662Z" fill="#8B1F31"/>
<path d="M194.213 110.27H196.641V130.617H194.213V110.27Z" fill="#8B1F31"/>
<path d="M216.14 131.239C214.185 131.219 212.428 130.765 210.868 129.877C209.328 128.968 208.114 127.744 207.225 126.204C206.357 124.644 205.922 122.887 205.922 120.932V120.074C205.922 118.198 206.367 116.48 207.255 114.92C208.163 113.341 209.387 112.097 210.928 111.189C212.487 110.261 214.185 109.797 216.022 109.797C217.878 109.797 219.576 110.261 221.116 111.189C222.656 112.097 223.88 113.341 224.788 114.92C225.696 116.48 226.151 118.198 226.151 120.074V120.932C226.151 122.887 225.706 124.654 224.818 126.234C223.949 127.813 222.754 129.047 221.234 129.936C219.714 130.824 218.016 131.259 216.14 131.239ZM216.051 128.988C217.493 128.988 218.796 128.643 219.961 127.952C221.126 127.241 222.044 126.273 222.715 125.049C223.386 123.825 223.722 122.453 223.722 120.932V120.074C223.722 118.632 223.376 117.299 222.685 116.075C221.994 114.831 221.056 113.854 219.872 113.143C218.707 112.413 217.414 112.047 215.992 112.047C214.59 112.047 213.307 112.413 212.142 113.143C210.977 113.854 210.049 114.831 209.358 116.075C208.687 117.299 208.351 118.632 208.351 120.074V120.932C208.351 122.453 208.687 123.825 209.358 125.049C210.029 126.273 210.947 127.241 212.112 127.952C213.297 128.643 214.61 128.988 216.051 128.988Z" fill="#8B1F31"/>
<path fill-rule="evenodd" clip-rule="evenodd" d="M77.5119 0.393725C66.7597 2.18901 56.4509 5.67982 44.258 11.6551C28.0646 19.5911 16.0176 29.3856 11.5155 38.2756C6.936 47.3181 9.28037 56.3366 17.221 60.2248C21.4417 62.2915 29.3303 62.7221 33.1171 61.0923L34.6975 60.4122L31.0828 59.6628C24.2508 58.2462 18.7353 54.6456 16.5247 50.158C15.0873 47.2408 15.168 42.0391 16.7014 38.7669C18.7801 34.3313 23.8098 28.9184 30.5407 23.8734C42.2112 15.1264 62.2642 6.0951 74.3835 4.12772C86.4459 2.16949 89.9978 4.96032 85.6183 12.9554C83.3708 17.0576 81.3884 19.7407 71.5669 31.9744C62.2118 43.6265 57.2187 50.5778 53.7932 56.7165C51.0547 61.6243 50.0924 64.1766 49.35 68.5016C48.5536 73.1422 49.678 76.111 53.1659 78.578C54.7991 79.7331 55.1948 79.8246 58.5306 79.8208C64.1617 79.8146 68.7108 77.9399 77.4271 72.034C85.9575 66.2533 98.9899 53.8155 109.73 41.2049C113.212 37.1159 113.671 36.5476 117.142 32.023C118.133 30.7299 119.049 29.7755 119.175 29.9019C119.302 30.0287 119.219 30.3703 118.992 30.6617C118.764 30.9531 117.267 33.7165 115.665 36.8029C109.835 48.0302 96.3801 71.6545 89.6815 82.4229L86.7726 87.0992L84.2204 87.1001C81.5792 87.1013 71.6891 88.0125 65.873 88.791C42.2799 91.9485 19.7092 101.41 8.17427 112.978C1.12696 120.046 -1.47433 127.434 0.802725 133.913C2.01275 137.355 4.06659 139.601 7.59025 141.335C12.9865 143.99 18.4842 144.606 26.2905 143.429C38.5578 141.58 50.7446 135.733 63.3644 125.643C72.5005 118.338 85.2334 104.267 92.5056 93.4382L94.5295 90.4246H104.314C121.212 90.4246 136.322 92.0208 161.062 96.419C165.634 97.2317 169.843 98.0202 170.415 98.1711C170.986 98.3216 171.338 98.3174 171.196 98.1611C170.865 97.7949 155.625 93.7105 148.602 92.1052C135.89 89.2001 121.049 87.3927 105.466 86.8511C100.95 86.6944 97.2562 86.4936 97.2562 86.4051C97.2562 86.3165 99.145 83.1292 101.454 79.322C105.403 72.8093 110.993 62.952 116.375 53.0141C119.202 47.7941 124.953 37.2813 129.679 28.6973C133.386 21.9638 138.318 13.356 140.422 9.94587C142.578 6.45298 142.044 2.29752 139.253 0.854304C136.502 -0.568128 135.26 0.108167 132.983 4.26863C126.116 16.8195 111 36.3012 97.3053 50.2511C83.2435 64.5752 68.6127 74.9446 61.3006 75.7697C60.0299 75.9131 59.3686 75.7448 58.4948 75.0552C57.5047 74.2737 57.3517 73.8576 57.3517 71.948C57.3517 66.6203 62.6009 57.7864 75.7295 41.019C86.4243 27.3605 90.3387 21.8399 92.7196 17.0585C95.1838 12.1103 95.9294 8.78658 95.187 6.0581C94.5593 3.75029 92.2159 1.32193 89.9725 0.654358C87.4506 -0.0955157 81.2246 -0.226043 77.5119 0.393725ZM30.7486 138.298C48.2767 133.32 66.3947 117.976 82.1021 94.8091L84.7932 90.8403L81.3606 90.9068C76.9087 90.9933 76.417 91.0506 67.3279 92.5479C40.3063 96.9989 21.9871 104.512 10.7664 115.746C7.60315 118.913 6.45297 120.407 5.15482 123.033C3.75733 125.862 3.52206 126.729 3.52206 129.061C3.52206 133.82 6.21064 136.927 12.0434 138.906C13.8549 139.521 15.5379 139.679 20.1489 139.669C25.4467 139.658 26.3969 139.535 30.7486 138.298Z" fill="#8B1F31"/>
<path fill-rule="evenodd" clip-rule="evenodd" d="M168.469 44.7771C170.279 42.8904 171.947 41.919 174.605 41.204C177.237 40.4965 180.726 40.376 182.213 40.9409C182.787 41.1595 183.576 41.8259 183.967 42.4215C184.628 43.4312 184.63 43.6029 183.995 44.9343C183.368 46.249 182.972 46.5371 182.168 46.2594C182.003 46.202 181.924 45.7249 181.993 45.1982C182.285 42.9681 179.536 42.2964 177.029 43.9857C173.614 46.2869 172.892 50.5658 174.769 57.3816C175.336 59.4375 175.918 62.166 176.063 63.4446L176.327 65.7694L178.462 65.3849C183.417 64.4925 187.82 62.4216 191.742 59.1407C193.309 57.8297 193.848 57.5786 194.236 57.9776C194.622 58.3742 194.294 58.8855 192.743 60.2992C189.553 63.2064 183.538 66.1165 178.624 67.1291C176.73 67.5194 176.234 67.785 176.234 68.4077C176.234 68.8404 175.853 70.2126 175.387 71.4571C173.855 75.5527 169.004 78.9305 162.819 80.2082C159.088 80.9785 157.473 81.0217 154.693 80.4256C151.786 79.8021 150.724 78.6994 151.007 76.5944C151.469 73.1489 156.701 69.695 164.249 67.8528L167.992 66.9391L167.735 65.2764C167.517 63.8644 166.043 57.1687 165.616 55.6478C165.541 55.3818 162.241 58.3808 158.283 62.3127C148.688 71.8432 143.105 75.7156 135.111 78.3863C131.727 79.517 130.732 79.6762 127.836 79.5486C118.409 79.1333 115.325 72.3146 120.065 62.3667C125.05 51.9055 137.874 42.4556 147.861 41.8832C153.076 41.5843 155.45 43.0163 155.45 46.4606C155.45 50.5467 151.812 54.3746 144.509 57.971C139.42 60.4767 133.125 62.5746 130.693 62.5746C129.476 62.5746 129.29 62.7824 127.988 65.5882C125.346 71.2821 126.259 75.0838 130.418 75.7073C134.696 76.3487 142.357 73.5999 147.701 69.5059C156.313 62.9079 165.426 53.8134 165.426 51.8174C165.426 49.9186 166.975 46.3347 168.469 44.7771ZM151.29 45.3196C152.861 47.213 149.452 51.8718 143.903 55.4142C139.296 58.3551 131.255 61.7956 130.576 61.116C130.254 60.7947 133.285 57.1359 137.073 53.2735C143.73 46.486 149.554 43.2279 151.29 45.3196ZM161.062 77.9112C164.365 77.0088 167.222 73.8447 167.758 70.494C167.906 69.5674 167.863 68.8221 167.662 68.8371C166.58 68.9186 160.729 70.9375 158.923 71.8524C156.762 72.9477 154.203 75.4617 154.203 76.4905C154.203 78.1332 157.642 78.8457 161.062 77.9112Z" fill="#8B1F31"/>
<path d="M211.368 21.2462C211.588 19.2684 212.212 12.4055 212.363 10.2813C212.402 9.73873 212.483 10.0051 212.542 10.8732C213.056 18.3289 213.556 23.6979 213.735 23.6979C213.854 23.6979 215.175 22.696 216.672 21.4715C218.783 19.7439 219.141 19.5451 218.269 20.5837C216.491 22.7003 215.095 24.8805 215.344 25.1516C215.717 25.5565 218.844 26.015 221.572 26.0647C222.97 26.0904 224.768 26.2435 225.567 26.4053C226.667 26.6278 225.76 26.7707 221.831 26.9925C218.978 27.1535 216.315 27.4174 215.914 27.5784C215.215 27.8594 215.232 27.9454 216.335 29.6324C216.968 30.6003 218.078 32.0919 218.802 32.9463L220.12 34.4998L218.304 32.9206C215.81 30.7519 214.268 29.617 213.815 29.617C213.312 29.617 213.117 30.9661 212.534 38.4956C212.266 41.9681 212.024 43.8326 211.998 42.639C211.944 40.2058 211.161 29.8865 211.015 29.6837C210.833 29.4307 209.201 30.5171 207.046 32.3259C204.696 34.2978 204.716 34.25 208.096 29.8557C208.873 28.8451 209.419 27.9206 209.308 27.801C209.198 27.6814 206.683 27.3255 203.719 27.0102C200.755 26.6949 198.185 26.3899 198.009 26.3323C197.832 26.2751 200.284 26.0004 203.456 25.7222C206.629 25.4444 209.373 25.0601 209.554 24.8687C209.749 24.6627 209.228 23.6671 208.277 22.432C205.634 18.9954 205.507 18.6951 207.409 20.3848C208.407 21.2719 209.655 22.2978 210.18 22.6648L211.135 23.3321L211.368 21.2462Z" fill="#8B1F31"/>
</svg>
