<svg xmlns="http://www.w3.org/2000/svg" viewBox="0 0 200 200" width="200" height="200"><path d="M91.00,84.00 L100.00,4.00 L109.00,84.00 C107.65,86.40 105.11,85.88 106.01,83.38 L139.60,60.40 L116.62,93.99 C114.12,94.89 113.60,92.35 116.00,91.00 L196.00,100.00 L116.00,109.00 C113.60,107.65 114.12,105.11 116.62,106.01 L139.60,139.60 L106.01,116.62 C105.11,114.12 107.65,113.60 109.00,116.00 L100.00,196.00 L91.00,116.00 C92.35,113.60 94.89,114.12 93.99,116.62 L60.40,139.60 L83.38,106.01 C85.88,105.11 86.40,107.65 84.00,109.00 L4.00,100.00 L84.00,91.00 C86.40,92.35 85.88,94.89 83.38,93.99 L60.40,60.40 L93.99,83.38 C94.89,85.88 92.35,86.40 91.00,84.00 Z" fill="#8B1F31"/></svg>