<svg xmlns="http://www.w3.org/2000/svg" width="271" height="40" viewBox="0 0 271 40" fill="none">
  <path d="M30.6337 18.9208C25.3389 18.4107 21.1493 14.2231 20.6398 8.93282L19.78 0L18.9202 8.93282C18.4107 14.224 14.2211 18.4116 8.92635 18.9208L0 19.78L8.92635 20.6392C14.2211 21.1493 18.4107 25.3369 18.9202 30.6273L19.78 39.56L20.6398 30.6273C21.1493 25.336 25.3389 21.1485 30.6337 20.6392L39.56 19.78L30.6337 18.9208Z" fill="currentColor"/>
  <path d="M59.7836 23.16L49.3036 5.72001H56.3436L63.0236 17L69.6636 5.72001H76.6636L66.0636 23.32V34.28H59.7836V23.16Z" fill="currentColor"/>
  <path d="M77.4233 5.72001H98.7833V11H83.7033V17.12H97.5433V22H83.7033V29H99.1033V34.28H77.4233V5.72001Z" fill="currentColor"/>
  <path d="M106.001 24.8C106.001 25.76 106.174 26.5733 106.521 27.24C106.867 27.9067 107.321 28.4533 107.881 28.88C108.467 29.28 109.147 29.5867 109.921 29.8C110.694 29.9867 111.494 30.08 112.321 30.08C112.881 30.08 113.481 30.04 114.121 29.96C114.761 29.8533 115.361 29.6667 115.921 29.4C116.481 29.1333 116.947 28.7733 117.321 28.32C117.694 27.84 117.881 27.24 117.881 26.52C117.881 25.7467 117.627 25.12 117.121 24.64C116.641 24.16 116.001 23.76 115.201 23.44C114.401 23.12 113.494 22.84 112.481 22.6C111.467 22.36 110.441 22.0933 109.401 21.8C108.334 21.5333 107.294 21.2133 106.281 20.84C105.267 20.44 104.361 19.9333 103.561 19.32C102.761 18.7067 102.107 17.9467 101.601 17.04C101.121 16.1067 100.881 14.9867 100.881 13.68C100.881 12.2133 101.187 10.9467 101.801 9.88001C102.441 8.78668 103.267 7.88001 104.281 7.16001C105.294 6.44001 106.441 5.90668 107.721 5.56001C109.001 5.21335 110.281 5.04001 111.561 5.04001C113.054 5.04001 114.481 5.21335 115.841 5.56001C117.227 5.88001 118.454 6.41334 119.521 7.16001C120.587 7.90668 121.427 8.86668 122.041 10.04C122.681 11.1867 123.001 12.5867 123.001 14.24H116.921C116.867 13.3867 116.681 12.68 116.361 12.12C116.067 11.56 115.667 11.12 115.161 10.8C114.654 10.48 114.067 10.2533 113.401 10.12C112.761 9.98668 112.054 9.92001 111.281 9.92001C110.774 9.92001 110.267 9.97335 109.761 10.08C109.254 10.1867 108.787 10.3733 108.361 10.64C107.961 10.9067 107.627 11.24 107.361 11.64C107.094 12.04 106.961 12.5467 106.961 13.16C106.961 13.72 107.067 14.1733 107.281 14.52C107.494 14.8667 107.907 15.1867 108.521 15.48C109.161 15.7733 110.027 16.0667 111.121 16.36C112.241 16.6533 113.694 17.0267 115.481 17.48C116.014 17.5867 116.747 17.7867 117.681 18.08C118.641 18.3467 119.587 18.7867 120.521 19.4C121.454 20.0133 122.254 20.84 122.921 21.88C123.614 22.8933 123.961 24.2 123.961 25.8C123.961 27.1067 123.707 28.32 123.201 29.44C122.694 30.56 121.934 31.5333 120.921 32.36C119.934 33.16 118.694 33.7867 117.201 34.24C115.734 34.6933 114.027 34.92 112.081 34.92C110.507 34.92 108.974 34.72 107.481 34.32C106.014 33.9467 104.707 33.3467 103.561 32.52C102.441 31.6933 101.547 30.64 100.881 29.36C100.214 28.08 99.8941 26.56 99.9208 24.8H106.001Z" fill="currentColor"/>
  <path d="M130.541 34.9146L132.834 24.6173H133.53C133.434 25.6136 133.387 26.4393 133.387 27.0944C133.387 28.9642 133.98 30.4859 135.168 31.6596C136.369 32.8333 137.931 33.4202 139.856 33.4202C141.644 33.4202 143.002 32.8743 143.93 31.7824C144.858 30.677 145.322 29.4077 145.322 27.9747C145.322 27.0466 145.11 26.2005 144.687 25.4362C144.046 24.3034 142.333 22.3108 139.549 19.4584C138.198 18.0936 137.331 17.0768 136.949 16.4081C136.321 15.3026 136.007 14.1425 136.007 12.9279C136.007 10.9899 136.73 9.33166 138.177 7.95322C139.624 6.57478 141.48 5.88556 143.745 5.88556C144.51 5.88556 145.233 5.96062 145.915 6.11075C146.338 6.19264 147.11 6.4656 148.229 6.92963C149.02 7.24353 149.457 7.41413 149.539 7.44142C149.73 7.48237 149.942 7.50284 150.174 7.50284C150.569 7.50284 150.911 7.40048 151.197 7.19576C151.484 6.99104 151.818 6.55431 152.2 5.88556H152.978L150.849 15.0979H150.153C150.208 14.279 150.235 13.6171 150.235 13.1121C150.235 11.4607 149.689 10.1096 148.597 9.0587C147.505 8.00781 146.066 7.48237 144.278 7.48237C142.858 7.48237 141.705 7.89863 140.818 8.73115C139.931 9.56367 139.487 10.5258 139.487 11.6177C139.487 12.573 139.767 13.4874 140.327 14.3609C140.9 15.2207 142.203 16.6333 144.237 18.5986C146.284 20.5502 147.608 22.0788 148.208 23.1843C148.809 24.2761 149.109 25.443 149.109 26.685C149.109 28.0907 148.734 29.4555 147.983 30.7793C147.246 32.0895 146.182 33.1063 144.789 33.8296C143.397 34.553 141.876 34.9146 140.224 34.9146C139.405 34.9146 138.641 34.8396 137.931 34.6894C137.222 34.5393 136.089 34.1708 134.533 33.584C134.001 33.3793 133.557 33.2769 133.202 33.2769C132.397 33.2769 131.769 33.8228 131.319 34.9146H130.541Z" fill="currentColor"/>
  <path d="M155.612 6.52019H176.698L174.426 13.8901H173.648C173.907 12.8119 174.037 11.8497 174.037 11.0035C174.037 10.0072 173.73 9.25659 173.116 8.75162C172.652 8.36948 171.457 8.17841 169.533 8.17841H167.343L161.856 27.2991C161.16 29.7011 160.812 31.1819 160.812 31.7415C160.812 32.2601 161.03 32.69 161.467 33.0312C161.904 33.3588 162.675 33.5226 163.78 33.5226H164.722L164.477 34.28H152.398L152.623 33.5226H153.156C154.22 33.5226 155.039 33.352 155.612 33.0108C156.008 32.7787 156.363 32.3625 156.677 31.762C157.004 31.1478 157.455 29.8581 158.028 27.8928L163.78 8.17841H162.122C160.525 8.17841 159.236 8.38313 158.253 8.79256C157.284 9.202 156.499 9.79568 155.899 10.5736C155.298 11.3515 154.807 12.457 154.425 13.8901H153.667L155.612 6.52019Z" fill="currentColor"/>
  <path d="M176.548 6.52019H188.278L188.053 7.27765C186.852 7.30494 185.992 7.42095 185.474 7.62567C184.969 7.81674 184.532 8.16476 184.164 8.66973C183.809 9.1747 183.433 10.1096 183.038 11.4744L180.192 21.3009C179.687 23.0478 179.387 24.1942 179.291 24.7401C179.128 25.6136 179.046 26.4256 179.046 27.1763C179.046 28.8277 179.66 30.2266 180.888 31.373C182.116 32.5058 183.761 33.0722 185.822 33.0722C187.173 33.0722 188.381 32.8197 189.445 32.3147C190.51 31.7961 191.417 31.0796 192.168 30.1652C192.932 29.2371 193.628 27.9883 194.256 26.4188C194.884 24.8357 195.437 23.2389 195.914 21.6284L198.371 13.1531C198.985 11.0376 199.292 9.6592 199.292 9.01775C199.292 8.56737 199.081 8.18523 198.658 7.87133C198.248 7.54378 197.409 7.34589 196.14 7.27765L196.365 6.52019H205.188L204.963 7.27765C203.926 7.27765 203.175 7.38001 202.711 7.58472C202.261 7.77579 201.865 8.13064 201.524 8.64926C201.183 9.15423 200.8 10.1437 200.377 11.6177L197.368 21.915C196.399 25.2588 195.485 27.729 194.625 29.3258C193.765 30.909 192.516 32.2397 190.878 33.3178C189.254 34.3824 187.234 34.9146 184.819 34.9146C182.035 34.9146 179.789 34.1299 178.083 32.5604C176.377 30.9772 175.525 29.1689 175.525 27.1353C175.525 26.3301 175.6 25.4703 175.75 24.5559C175.859 23.9554 176.125 22.9181 176.548 21.4442L179.291 12.0066C179.673 10.6419 179.865 9.63873 179.865 8.99728C179.865 8.49231 179.667 8.10334 179.271 7.83039C178.889 7.54378 177.913 7.35953 176.343 7.27765L176.548 6.52019Z" fill="currentColor"/>
  <path d="M205.755 7.27765L206 6.52019H214.865C218.618 6.52019 221.395 6.9501 223.197 7.80992C225.012 8.66973 226.458 10.0277 227.537 11.8838C228.615 13.7263 229.154 15.7052 229.154 17.8206C229.154 19.6358 228.84 21.4032 228.212 23.1229C227.598 24.8288 226.895 26.2005 226.104 27.2377C225.326 28.2613 224.125 29.3941 222.501 30.636C220.876 31.878 219.116 32.7992 217.219 33.3997C215.322 33.9866 212.954 34.28 210.115 34.28H198.364L198.63 33.5226C199.709 33.4953 200.432 33.3997 200.8 33.236C201.346 33.0039 201.749 32.69 202.008 32.2942C202.404 31.721 202.848 30.5678 203.339 28.8345L208.252 12.0476C208.634 10.7237 208.825 9.6865 208.825 8.93587C208.825 8.4036 208.648 7.99416 208.293 7.70756C207.938 7.42095 207.242 7.27765 206.205 7.27765H205.755ZM213.022 8.05558L207.003 28.8345C206.553 30.3904 206.328 31.3525 206.328 31.721C206.328 31.9394 206.396 32.1509 206.533 32.3557C206.683 32.5604 206.881 32.6969 207.126 32.7651C207.481 32.8879 208.054 32.9493 208.846 32.9493C210.989 32.9493 212.974 32.731 214.803 32.2942C216.646 31.8439 218.154 31.1819 219.327 30.3085C220.992 29.0392 222.323 27.2923 223.319 25.0677C224.316 22.8431 224.814 20.3114 224.814 17.4726C224.814 14.2654 224.05 11.8838 222.521 10.328C220.992 8.75844 218.761 7.97369 215.827 7.97369C215.103 7.97369 214.169 8.00099 213.022 8.05558Z" fill="currentColor"/>
  <path d="M238.503 33.5226L238.278 34.28H226.854L227.141 33.5226C228.287 33.4953 229.045 33.3997 229.413 33.236C230.014 33.0039 230.457 32.6832 230.744 32.2738C231.194 31.6323 231.658 30.4859 232.136 28.8345L236.967 12.0885C237.377 10.6964 237.581 9.64556 237.581 8.93587C237.581 8.58102 237.493 8.28077 237.315 8.03511C237.138 7.78944 236.865 7.6052 236.496 7.48237C236.142 7.34589 235.439 7.27765 234.388 7.27765L234.634 6.52019H245.361L245.136 7.27765C244.262 7.264 243.614 7.35953 243.191 7.56425C242.577 7.83721 242.106 8.22618 241.778 8.73115C241.464 9.23612 241.055 10.3552 240.55 12.0885L235.739 28.8345C235.302 30.3767 235.084 31.3594 235.084 31.7824C235.084 32.1236 235.166 32.4171 235.33 32.6627C235.507 32.8948 235.78 33.079 236.148 33.2155C236.531 33.3383 237.315 33.4407 238.503 33.5226Z" fill="currentColor"/>
  <path d="M261.035 5.88556C262.878 5.88556 264.509 6.28817 265.928 7.0934C267.348 7.88498 268.46 9.06552 269.265 10.635C270.07 12.1909 270.473 13.8082 270.473 15.4869C270.473 18.4621 269.606 21.5875 267.873 24.863C266.153 28.1248 263.901 30.6156 261.117 32.3352C258.333 34.0548 255.453 34.9146 252.478 34.9146C250.335 34.9146 248.541 34.4438 247.094 33.5021C245.661 32.5467 244.597 31.2911 243.9 29.7353C243.218 28.1794 242.877 26.6713 242.877 25.211C242.877 22.6179 243.498 20.0589 244.74 17.534C245.995 14.9955 247.49 12.8801 249.223 11.1878C250.956 9.48178 252.806 8.17158 254.771 7.25717C256.736 6.34277 258.824 5.88556 261.035 5.88556ZM260.339 7.19576C258.975 7.19576 257.637 7.53696 256.327 8.21935C255.03 8.8881 253.741 9.99358 252.458 11.5358C251.175 13.0644 250.022 15.0706 248.998 17.5545C247.742 20.6116 247.115 23.4982 247.115 26.2141C247.115 28.1521 247.613 29.8717 248.609 31.373C249.605 32.8606 251.134 33.6044 253.195 33.6044C254.437 33.6044 255.651 33.2974 256.839 32.6832C258.04 32.0691 259.288 31.0182 260.585 29.5305C262.209 27.6608 263.574 25.2792 264.679 22.3859C265.785 19.4789 266.338 16.7698 266.338 14.2585C266.338 12.4024 265.839 10.7647 264.843 9.3453C263.847 7.91227 262.346 7.19576 260.339 7.19576Z" fill="currentColor"/>
</svg>
